<svg preserveAspectRatio="none" overflow="visible" style="display: block;" width="40" height="40" viewBox="0 0 40 40" fill="none" xmlns="http://www.w3.org/2000/svg">
<g id="arrow-back-circle">
<path id="Vector" d="M3.75 20C3.75 28.9742 11.0258 36.25 20 36.25C28.9742 36.25 36.25 28.9742 36.25 20C36.25 11.0258 28.9742 3.75 20 3.75C11.0258 3.75 3.75 11.0258 3.75 20ZM20.3633 12.8625C20.4798 12.9781 20.5725 13.1156 20.6359 13.267C20.6994 13.4184 20.7324 13.5809 20.733 13.745C20.7337 13.9092 20.702 14.0719 20.6397 14.2238C20.5775 14.3758 20.4859 14.5139 20.3703 14.6305L16.2828 18.75H26.7187C27.0503 18.75 27.3682 18.8817 27.6026 19.1161C27.8371 19.3505 27.9687 19.6685 27.9687 20C27.9687 20.3315 27.8371 20.6495 27.6026 20.8839C27.3682 21.1183 27.0503 21.25 26.7187 21.25H16.2828L20.3703 25.3695C20.4859 25.4862 20.5774 25.6245 20.6396 25.7765C20.7018 25.9285 20.7334 26.0913 20.7327 26.2555C20.732 26.4198 20.6989 26.5823 20.6354 26.7337C20.5719 26.8852 20.4791 27.0227 20.3625 27.1383C20.2458 27.2539 20.1076 27.3454 19.9555 27.4076C19.8035 27.4698 19.6407 27.5014 19.4765 27.5007C19.3123 27.5 19.1498 27.4669 18.9983 27.4034C18.8468 27.3399 18.7094 27.2471 18.5937 27.1305L12.3914 20.8805C12.1591 20.6463 12.0287 20.3299 12.0287 20C12.0287 19.6701 12.1591 19.3537 12.3914 19.1195L18.5937 12.8695C18.7094 12.7527 18.8469 12.6599 18.9985 12.5963C19.1501 12.5327 19.3127 12.4997 19.4771 12.499C19.6414 12.4984 19.8043 12.5301 19.9564 12.5925C20.1084 12.6549 20.2467 12.7466 20.3633 12.8625Z" fill="#AAAAAA"/>
</g>
</svg>
